:FULLY-SPECIFIED
:FORCE-ALL-JOINTS-BE-3DOF
:DEGREES
1
root 6.24314 16.836 -28.1378 9.0217 -2.52979 -3.05774
lfemur -20.3712 2.30257 -19.9954
ltibia 35.927 0 0
lfoot -38.654 3.93715 0
ltoes 38.9541 0 0
rfemur -19.4747 0.22019 19.5256
rtibia 36.0342 0 0
rfoot -30.3779 -10.4967 0
rtoes 21.4483 0 0
lowerback -2.05144 3.66971 -5.03766
upperback -2.66728 5.00355 3.49279
thorax -2.36397 2.67023 6.42441
lowerneck -9.84699 -2.36864 1.94815
upperneck -1.37933 -3.32542 -1.65382
head 1.16433 -1.69823 -0.975663
lclavicle -1.65488e-14 -3.69739e-14 0
lhumerus -41.7253 -10.8128 99.8312
lradius 34.5094 0 0
lwrist 2.17521 0 0
lhand -10.5949 9.65639 0
lfingers 7.12502 0 0
lthumb 15.4107 39.062 0
rclavicle -1.65488e-14 -3.69739e-14 0
rhumerus -43.273 -4.86223 -84.2703
rradius 40.4763 0 0
rwrist 9.89469 0 0
rhand -23.7965 -22.476 0
rfingers 7.12502 0 0
rthumb 2.67393 -52.439 0
2
root 6.2349 16.8387 -28.1346 9.05308 -2.50572 -3.03453
lfemur -20.3527 2.27626 -19.9853
ltibia 35.8459 0 0
lfoot -38.5655 3.94732 0
ltoes 38.8938 0 0
rfemur -19.3587 0.491168 19.5284
rtibia 35.8115 0 0
rfoot -30.2692 -10.8151 0
rtoes 21.2443 0 0
lowerback -2.17221 3.62712 -4.90396
upperback -2.64124 4.94535 3.41175
thorax -2.24565 2.63452 6.27351
lowerneck -9.84037 -2.34322 1.96432
upperneck -1.42392 -3.29425 -1.58468
head 1.15002 -1.68159 -0.954916
lclavicle -1.23856e-14 -3.44749e-14 0
lhumerus -41.7228 -10.8498 99.7192
lradius 34.589 0 0
lwrist 2.25784 0 0
lhand -10.6217 9.44841 0
lfingers 7.12502 0 0
lthumb 15.3849 38.856 0
rclavicle -1.23856e-14 -3.44749e-14 0
rhumerus -43.1812 -4.87022 -84.4152
rradius 40.4454 0 0
rwrist 9.9288 0 0
rhand -23.946 -22.3546 0
rfingers 7.12502 0 0
rthumb 2.52953 -52.3184 0
3
root 6.22667 16.8415 -28.1314 9.08447 -2.48164 -3.01132
lfemur -20.3343 2.24995 -19.9752
ltibia 35.7648 0 0
lfoot -38.477 3.95748 0
ltoes 38.8335 0 0
rfemur -19.2426 0.762145 19.5312
rtibia 35.5887 0 0
rfoot -30.1604 -11.1335 0
rtoes 21.0403 0 0
lowerback -2.29298 3.58453 -4.77026
upperback -2.6152 4.88714 3.33071
thorax -2.12732 2.59881 6.12261
lowerneck -9.83376 -2.3178 1.98049
upperneck -1.46851 -3.26307 -1.51554
head 1.13572 -1.66496 -0.934168
lclavicle -8.22232e-15 -3.19759e-14 0
lhumerus -41.7203 -10.8868 99.6072
lradius 34.6685 0 0
lwrist 2.34047 0 0
lhand -10.6486 9.24044 0
lfingers 7.12502 0 0
lthumb 15.359 38.6499 0
rclavicle -8.22232e-15 -3.19759e-14 0
rhumerus -43.0893 -4.87821 -84.5602
rradius 40.4145 0 0
rwrist 9.9629 0 0
rhand -24.0955 -22.2332 0
rfingers 7.12502 0 0
rthumb 2.38513 -52.1978 0
4
root 6.21843 16.8442 -28.1283 9.11585 -2.45757 -2.98811
lfemur -20.3158 2.22364 -19.9651
ltibia 35.6836 0 0
lfoot -38.3884 3.96765 0
ltoes 38.7731 0 0
rfemur -19.1266 1.03312 19.5339
rtibia 35.366 0 0
rfoot -30.0517 -11.452 0
rtoes 20.8364 0 0
lowerback -2.41375 3.54194 -4.63656
upperback -2.58917 4.82894 3.24967
thorax -2.009 2.5631 5.97171
lowerneck -9.82714 -2.29238 1.99667
upperneck -1.5131 -3.2319 -1.4464
head 1.12141 -1.64832 -0.913421
lclavicle -4.05909e-15 -2.94769e-14 0
lhumerus -41.7178 -10.9238 99.4952
lradius 34.7481 0 0
lwrist 2.42309 0 0
lhand -10.6754 9.03246 0
lfingers 7.12502 0 0
lthumb 15.3332 38.4439 0
rclavicle -4.05909e-15 -2.94769e-14 0
rhumerus -42.9975 -4.8862 -84.7051
rradius 40.3835 0 0
rwrist 9.99701 0 0
rhand -24.245 -22.1118 0
rfingers 7.12502 0 0
rthumb 2.24074 -52.0772 0
5
root 6.2102 16.847 -28.1251 9.14724 -2.43349 -2.9649
lfemur -20.2973 2.19733 -19.955
ltibia 35.6025 0 0
lfoot -38.2999 3.97781 0
ltoes 38.7128 0 0
rfemur -19.0106 1.3041 19.5367
rtibia 35.1432 0 0
rfoot -29.943 -11.7704 0
rtoes 20.6324 0 0
lowerback -2.53451 3.49935 -4.50286
upperback -2.56313 4.77073 3.16864
thorax -1.89068 2.52739 5.82081
lowerneck -9.82053 -2.26696 2.01284
upperneck -1.55768 -3.20073 -1.37725
head 1.10711 -1.63168 -0.892673
lclavicle 1.04152e-16 -2.69779e-14 0
lhumerus -41.7152 -10.9607 99.3832
lradius 34.8276 0 0
lwrist 2.50572 0 0
lhand -10.7022 8.82449 0
lfingers 7.12502 0 0
lthumb 15.3073 38.2379 0
rclavicle 1.04152e-16 -2.69779e-14 0
rhumerus -42.9057 -4.8942 -84.85
rradius 40.3526 0 0
rwrist 10.0311 0 0
rhand -24.3945 -21.9904 0
rfingers 7.12502 0 0
rthumb 2.09634 -51.9566 0
6
root 6.20196 16.8497 -28.1219 9.17862 -2.40942 -2.94169
lfemur -20.2788 2.17102 -19.9449
ltibia 35.5214 0 0
lfoot -38.2114 3.98798 0
ltoes 38.6525 0 0
rfemur -18.8945 1.57508 19.5395
rtibia 34.9205 0 0
rfoot -29.8342 -12.0888 0
rtoes 20.4284 0 0
lowerback -2.65528 3.45676 -4.36916
upperback -2.53709 4.71253 3.0876
thorax -1.77236 2.49168 5.66991
lowerneck -9.81391 -2.24154 2.02901
upperneck -1.60227 -3.16955 -1.30811
head 1.0928 -1.61505 -0.871926
lclavicle 4.26739e-15 -2.44789e-14 0
lhumerus -41.7127 -10.9977 99.2712
lradius 34.9072 0 0
lwrist 2.58835 0 0
lhand -10.7291 8.61651 0
lfingers 7.12502 0 0
lthumb 15.2815 38.0319 0
rclavicle 4.26739e-15 -2.44789e-14 0
rhumerus -42.8138 -4.90219 -84.9949
rradius 40.3217 0 0
rwrist 10.0652 0 0
rhand -24.544 -21.869 0
rfingers 7.12502 0 0
rthumb 1.95194 -51.836 0
7
root 6.19373 16.8525 -28.1187 9.21001 -2.38534 -2.91849
lfemur -20.2604 2.14472 -19.9348
ltibia 35.4403 0 0
lfoot -38.1229 3.99815 0
ltoes 38.5922 0 0
rfemur -18.7785 1.84606 19.5423
rtibia 34.6977 0 0
rfoot -29.7255 -12.4072 0
rtoes 20.2244 0 0
lowerback -2.77605 3.41416 -4.23546
upperback -2.51105 4.65432 3.00656
thorax -1.65403 2.45597 5.519
lowerneck -9.8073 -2.21613 2.04518
upperneck -1.64686 -3.13838 -1.23897
head 1.07849 -1.59841 -0.851178
lclavicle 8.43063e-15 -2.19799e-14 0
lhumerus -41.7102 -11.0347 99.1591
lradius 34.9867 0 0
lwrist 2.67098 0 0
lhand -10.7559 8.40854 0
lfingers 7.12502 0 0
lthumb 15.2556 37.8258 0
rclavicle 8.43063e-15 -2.19799e-14 0
rhumerus -42.722 -4.91018 -85.1399
rradius 40.2908 0 0
rwrist 10.0993 0 0
rhand -24.6936 -21.7477 0
rfingers 7.12502 0 0
rthumb 1.80754 -51.7154 0
8
root 6.18549 16.8552 -28.1155 9.24139 -2.36127 -2.89528
lfemur -20.2419 2.11841 -19.9247
ltibia 35.3592 0 0
lfoot -38.0343 4.00831 0
ltoes 38.5318 0 0
rfemur -18.6625 2.11703 19.5451
rtibia 34.475 0 0
rfoot -29.6168 -12.7256 0
rtoes 20.0204 0 0
lowerback -2.89682 3.37157 -4.10176
upperback -2.48501 4.59612 2.92552
thorax -1.53571 2.42026 5.3681
lowerneck -9.80068 -2.19071 2.06135
upperneck -1.69145 -3.10721 -1.16983
head 1.06419 -1.58177 -0.830431
lclavicle 1.25939e-14 -1.94809e-14 0
lhumerus -41.7077 -11.0717 99.0471
lradius 35.0663 0 0
lwrist 2.75361 0 0
lhand -10.7827 8.20056 0
lfingers 7.12502 0 0
lthumb 15.2298 37.6198 0
rclavicle 1.25939e-14 -1.94809e-14 0
rhumerus -42.6302 -4.91817 -85.2848
rradius 40.2599 0 0
rwrist 10.1334 0 0
rhand -24.8431 -21.6263 0
rfingers 7.12502 0 0
rthumb 1.66315 -51.5948 0
